<svg xmlns="http://www.w3.org/2000/svg" width="13.994" height="14.002" viewBox="0 0 13.994 14.002">
  <g id="call" transform="translate(-504.122 -648.282)">
    <path id="Path_249" data-name="Path 249" d="M504.71,649.475a1.165,1.165,0,0,0-.053.776,14.279,14.279,0,0,0,3.949,7.585,13.891,13.891,0,0,0,7.565,3.929,1.218,1.218,0,0,0,.776-.053.375.375,0,0,0,.187-.236l.469-2.1a.566.566,0,0,0-.177-.516c-.072-.071-1.661-.645-2.412-1.012a.632.632,0,0,0-.822.188l-.292.5a.736.736,0,0,1-.457.344c-.735.187-3.011-1.908-3.505-2.4-.513-.513-2.678-2.843-2.49-3.579a.742.742,0,0,1,.344-.458l.5-.289a.633.633,0,0,0,.193-.823,12.8,12.8,0,0,1-.732-2.017.656.656,0,0,0-.7-.5l-2.108.471A.374.374,0,0,0,504.71,649.475Z" transform="translate(0 -0.011)" fill="none" stroke="#a0ce4e" stroke-miterlimit="10" stroke-width="1"/>
    <path id="Path_250" data-name="Path 250" d="M515.75,651.794a4.146,4.146,0,0,1,4.146,4.146" transform="translate(-4.641 -1.256)" fill="none" stroke="#a0ce4e" stroke-linecap="round" stroke-linejoin="round" stroke-width="1"/>
    <path id="Path_251" data-name="Path 251" d="M515.75,648.782a5.9,5.9,0,0,1,5.9,5.9" transform="translate(-4.641)" fill="none" stroke="#a0ce4e" stroke-linecap="round" stroke-linejoin="round" stroke-width="1"/>
  </g>
</svg>
