<svg xmlns="http://www.w3.org/2000/svg" width="8.75" height="7" viewBox="0 0 8.75 7">
  <g id="Group_1403" data-name="Group 1403" transform="translate(0 0)">
    <path id="Path_3384" data-name="Path 3384" d="M4.173,8.153a.356.356,0,0,0,.4,0L8.663,5.229a.163.163,0,0,0,0-.289l-.438-.314a.356.356,0,0,0-.4,0L4.375,7.093.929,4.627a.338.338,0,0,0-.2-.063.338.338,0,0,0-.2.063l-.438.314a.163.163,0,0,0,0,.289Z" transform="translate(0 -4.564)"/>
    <path id="Path_3385" data-name="Path 3385" d="M8.224,114.26a.356.356,0,0,0-.4,0l-3.446,2.466L.929,114.26a.338.338,0,0,0-.2-.063.338.338,0,0,0-.2.063l-.438.314a.163.163,0,0,0,0,.289l4.086,2.924a.355.355,0,0,0,.4,0l4.086-2.924a.163.163,0,0,0,0-.289Z" transform="translate(0 -110.849)"/>
  </g>
</svg>
