<svg xmlns="http://www.w3.org/2000/svg" width="28.074" height="25" viewBox="0 0 28.074 25">
  <g id="Group_1402" data-name="Group 1402" transform="translate(5.268 2.308)">
    <g id="hand" transform="translate(-5.268 -30.337)">
      <g id="Group_1386" data-name="Group 1386" transform="translate(0 28.029)">
        <g id="Group_1385" data-name="Group 1385">
          <path id="Path_3375" data-name="Path 3375" d="M28.074,42.885a2.463,2.463,0,0,0-.918-1.919,2.47,2.47,0,0,0,.885-2.33A2.544,2.544,0,0,0,25.5,36.579H20.281l.163-.488a6.98,6.98,0,0,0-1.979-7.508,2.319,2.319,0,0,0-3.69.974.548.548,0,0,0-.008.353,4.342,4.342,0,0,1,.022,3.362,10.535,10.535,0,0,1-3.279,3.421,8.147,8.147,0,0,1-1.2.752,5.051,5.051,0,0,0-1.726,1.327h-2v-.548a.548.548,0,0,0-.548-.548H.548A.548.548,0,0,0,0,38.224V52.48a.548.548,0,0,0,.548.548H6.031a.548.548,0,0,0,.548-.548V50.835H9.655a8.684,8.684,0,0,0,5.786,2.193h6.875a2.466,2.466,0,0,0,2.05-3.838h.143A2.465,2.465,0,0,0,26.452,45.2,2.467,2.467,0,0,0,28.074,42.885ZM5.483,51.932H1.1V38.772H5.483Zm20.123-7.676H20.342a.548.548,0,1,0,0,1.1H24.51a1.371,1.371,0,1,1,0,2.742H20.342a.548.548,0,0,0,0,1.1h1.974a1.371,1.371,0,1,1,0,2.742H15.442a7.591,7.591,0,0,1-5.2-2.046.548.548,0,0,0-.374-.148H6.58v-9.87H8.848a.548.548,0,0,0,.442-.223,3.887,3.887,0,0,1,1.538-1.235,9.183,9.183,0,0,0,1.352-.849c3.754-2.9,4.613-4.676,3.693-7.782a1.22,1.22,0,0,1,1.914-.331,5.855,5.855,0,0,1,1.616,6.3l-.278.835h-.7a.548.548,0,1,0,0,1.1H25.5a1.44,1.44,0,0,1,1.454,1.136,1.371,1.371,0,0,1-1.352,1.605H20.343a.548.548,0,0,0,0,1.1h5.264a1.371,1.371,0,1,1,0,2.741Z" transform="translate(0 -28.029)" fill="#fff"/>
        </g>
      </g>
    </g>
    <g id="coin" transform="translate(0.869 4.896)">
      <g id="Group_1392" data-name="Group 1392" transform="translate(5.691 3.104)">
        <g id="Group_1391" data-name="Group 1391">
          <path id="Path_3378" data-name="Path 3378" d="M180.318,101.837H179.11a1.248,1.248,0,0,1,0-2.5h2.416a.564.564,0,0,0,0-1.128h-1.248V96.965a.564.564,0,1,0-1.128,0v1.248h-.04a2.376,2.376,0,1,0,0,4.752h1.208a1.248,1.248,0,0,1,0,2.5H177.9a.564.564,0,1,0,0,1.128h1.248v1.248a.564.564,0,1,0,1.128,0v-1.248h.04a2.376,2.376,0,0,0,0-4.752Z" transform="translate(-176.734 -96.401)" fill="#fff"/>
        </g>
      </g>
    </g>
  </g>
</svg>
