<svg xmlns="http://www.w3.org/2000/svg" width="20.888" height="19.995" viewBox="0 0 20.888 19.995">
  <g id="Group_383" data-name="Group 383" transform="translate(-776 -379)">
    <path id="Path_135" data-name="Path 135" d="M778.444,383.892A2.446,2.446,0,1,0,776,381.444a2.447,2.447,0,0,0,2.444,2.448Zm0-3.756a1.308,1.308,0,1,1-1.308,1.308,1.309,1.309,0,0,1,1.308-1.308Zm0,0" fill="#fff"/>
    <path id="Path_177" data-name="Path 177" d="M778.444,383.892A2.446,2.446,0,1,0,776,381.444a2.447,2.447,0,0,0,2.444,2.448Zm0-3.756a1.308,1.308,0,1,1-1.308,1.308,1.309,1.309,0,0,1,1.308-1.308Zm0,0" transform="translate(8)" fill="#fff"/>
    <path id="Path_180" data-name="Path 180" d="M778.444,383.892A2.446,2.446,0,1,0,776,381.444a2.447,2.447,0,0,0,2.444,2.448Zm0-3.756a1.308,1.308,0,1,1-1.308,1.308,1.309,1.309,0,0,1,1.308-1.308Zm0,0" transform="translate(16)" fill="#fff"/>
    <path id="Path_136" data-name="Path 136" d="M778.444,506.063A2.444,2.444,0,1,0,776,503.619a2.447,2.447,0,0,0,2.444,2.444Zm0-3.752a1.308,1.308,0,1,1-1.308,1.308,1.309,1.309,0,0,1,1.308-1.308Zm0,0" transform="translate(0 -114.621)" fill="#fff"/>
    <path id="Path_176" data-name="Path 176" d="M778.444,506.063A2.444,2.444,0,1,0,776,503.619a2.447,2.447,0,0,0,2.444,2.444Zm0-3.752a1.308,1.308,0,1,1-1.308,1.308,1.309,1.309,0,0,1,1.308-1.308Zm0,0" transform="translate(8 -114.621)" fill="#fff"/>
    <path id="Path_179" data-name="Path 179" d="M778.444,506.063A2.444,2.444,0,1,0,776,503.619a2.447,2.447,0,0,0,2.444,2.444Zm0-3.752a1.308,1.308,0,1,1-1.308,1.308,1.309,1.309,0,0,1,1.308-1.308Zm0,0" transform="translate(16 -114.621)" fill="#fff"/>
    <path id="Path_137" data-name="Path 137" d="M778.444,628.238A2.444,2.444,0,1,0,776,625.795a2.447,2.447,0,0,0,2.444,2.444Zm0-3.756a1.308,1.308,0,1,1-1.308,1.308,1.309,1.309,0,0,1,1.308-1.308Zm0,0" transform="translate(0 -229.243)" fill="#fff"/>
    <path id="Path_178" data-name="Path 178" d="M778.444,628.238A2.444,2.444,0,1,0,776,625.795a2.447,2.447,0,0,0,2.444,2.444Zm0-3.756a1.308,1.308,0,1,1-1.308,1.308,1.309,1.309,0,0,1,1.308-1.308Zm0,0" transform="translate(8 -229.243)" fill="#fff"/>
    <path id="Path_181" data-name="Path 181" d="M778.444,628.238A2.444,2.444,0,1,0,776,625.795a2.447,2.447,0,0,0,2.444,2.444Zm0-3.756a1.308,1.308,0,1,1-1.308,1.308,1.309,1.309,0,0,1,1.308-1.308Zm0,0" transform="translate(16 -229.243)" fill="#fff"/>
  </g>
</svg>
