<svg xmlns="http://www.w3.org/2000/svg" width="12.547" height="14" viewBox="0 0 12.547 14">
  <g id="Group_1337" data-name="Group 1337" transform="translate(0 0)">
    <path id="Path_3360" data-name="Path 3360" d="M113.186,200.547a.547.547,0,0,0-.547-.547h-5.633a.547.547,0,0,0,0,1.094h5.633A.547.547,0,0,0,113.186,200.547Z" transform="translate(-104.275 -194.531)" fill="#282828"/>
    <path id="Path_3361" data-name="Path 3361" d="M107.006,280a.547.547,0,0,0,0,1.094h3.421a.547.547,0,0,0,0-1.094Z" transform="translate(-104.275 -272.344)" fill="#282828"/>
    <path id="Path_3362" data-name="Path 3362" d="M30.586,12.906H28.757a1.1,1.1,0,0,1-1.094-1.094V2.187a1.1,1.1,0,0,1,1.094-1.094h6.724a1.1,1.1,0,0,1,1.094,1.094V5.551a.547.547,0,1,0,1.094,0V2.187A2.19,2.19,0,0,0,35.481,0H28.757A2.19,2.19,0,0,0,26.57,2.187v9.625A2.19,2.19,0,0,0,28.757,14h1.829a.547.547,0,1,0,0-1.094Z" transform="translate(-26.57)" fill="#282828"/>
    <path id="Path_3363" data-name="Path 3363" d="M249.594,272.5a1.642,1.642,0,0,0-2.32,0l-3,3a.547.547,0,0,0-.137.228l-.654,2.153a.547.547,0,0,0,.669.686l2.207-.611a.547.547,0,0,0,.24-.14l3-2.99A1.642,1.642,0,0,0,249.594,272.5Zm-3.667,4.435-1.11.308.325-1.07,2.026-2.021.774.774Zm2.894-2.888-.106.106-.773-.773.106-.105a.547.547,0,0,1,.774.773Z" transform="translate(-237.527 -264.586)" fill="#282828"/>
    <path id="Path_3364" data-name="Path 3364" d="M112.639,120h-5.633a.547.547,0,1,0,0,1.094h5.633a.547.547,0,1,0,0-1.094Z" transform="translate(-104.275 -116.719)" fill="#282828"/>
  </g>
</svg>
