<svg xmlns="http://www.w3.org/2000/svg" width="8.75" height="7" viewBox="0 0 8.75 7">
  <g id="Group_1403" data-name="Group 1403" transform="translate(0 0)">
    <path id="Path_3384" data-name="Path 3384" d="M4.173,4.627a.356.356,0,0,1,.4,0L8.663,7.551a.163.163,0,0,1,0,.289l-.438.314a.356.356,0,0,1-.4,0L4.375,5.687.929,8.153a.338.338,0,0,1-.2.063.338.338,0,0,1-.2-.063L.088,7.839a.163.163,0,0,1,0-.289Z" transform="translate(0 -1.216)"/>
    <path id="Path_3385" data-name="Path 3385" d="M8.224,117.786a.356.356,0,0,1-.4,0L4.375,115.32.929,117.786a.338.338,0,0,1-.2.063.338.338,0,0,1-.2-.063l-.438-.314a.163.163,0,0,1,0-.289l4.086-2.924a.355.355,0,0,1,.4,0l4.086,2.924a.163.163,0,0,1,0,.289Z" transform="translate(0 -114.197)"/>
  </g>
</svg>
