<svg xmlns="http://www.w3.org/2000/svg" width="25" height="17.484" viewBox="0 0 25 17.484">
  <path id="Path_3373" data-name="Path 3373" d="M25,88.239a6.217,6.217,0,0,1-6.21,6.21H15.784a.63.63,0,0,1-.544-.311.62.62,0,0,1-.088-.32.632.632,0,0,1,.631-.632H18.79a4.946,4.946,0,1,0,0-9.893H1.762L2.7,84.338l1.716,1.923.932,1.044a.632.632,0,0,1-.943.841L2.718,86.261.368,83.627a1.45,1.45,0,0,1,0-1.932L2.773,79,4.4,77.176a.632.632,0,0,1,.943.841L4.467,79l-2.7,3.031H18.79A6.216,6.216,0,0,1,25,88.239Z" transform="translate(0 -76.965)" fill="#282828"/>
</svg>
