<svg xmlns="http://www.w3.org/2000/svg" width="13.778" height="20" viewBox="0 0 13.778 20">
  <path id="Facebook_Places" d="M80.357,4.978a6.23,6.23,0,0,0-.323-.8A6.852,6.852,0,0,0,66.9,6.2v.853c0,.036.012.356.03.516.249,1.991,1.82,4.107,2.993,6.1C71.19,15.8,72.5,17.9,73.8,20c.8-1.369,1.6-2.756,2.379-4.089.213-.391.46-.782.674-1.156.142-.249.414-.5.538-.729,1.262-2.311,3.294-4.64,3.294-6.933V6.151A7.1,7.1,0,0,0,80.357,4.978Zm-6.6,4.285a2.445,2.445,0,0,1-2.341-1.671,2.319,2.319,0,0,1-.066-.623V6.418a2.315,2.315,0,0,1,2.483-2.275A2.518,2.518,0,0,1,76.355,6.7,2.582,2.582,0,0,1,73.756,9.262Z" transform="translate(-66.905)" fill="#0074e4"/>
</svg>
