<svg xmlns="http://www.w3.org/2000/svg" width="15" height="15" viewBox="0 0 15 15">
  <g id="instagram_4_" data-name="instagram (4)" transform="translate(0 0)">
    <path id="Path_1949" data-name="Path 1949" d="M10.94,0H4.06A4.065,4.065,0,0,0,0,4.06V10.94A4.065,4.065,0,0,0,4.06,15H10.94A4.065,4.065,0,0,0,15,10.94V4.06A4.065,4.065,0,0,0,10.94,0ZM7.5,11.6a4.1,4.1,0,1,1,4.1-4.1A4.106,4.106,0,0,1,7.5,11.6Zm4.2-7.236a1.212,1.212,0,1,1,1.212-1.212A1.213,1.213,0,0,1,11.7,4.366Zm0,0" transform="translate(0 0)" fill="#fff"/>
    <path id="Path_1950" data-name="Path 1950" d="M148.9,146.02a2.884,2.884,0,1,0,2.884,2.884A2.887,2.887,0,0,0,148.9,146.02Zm0,0" transform="translate(-141.403 -141.403)" fill="#fff"/>
    <path id="Path_1951" data-name="Path 1951" d="M388.331,96.3a.339.339,0,1,0,.339.339A.34.34,0,0,0,388.331,96.3Zm0,0" transform="translate(-376.636 -93.482)" fill="#fff"/>
  </g>
</svg>
