<svg xmlns="http://www.w3.org/2000/svg" width="20.999" height="21.012" viewBox="0 0 20.999 21.012">
  <g id="call" transform="translate(-504.122 -648.282)">
    <path id="Path_249" data-name="Path 249" d="M504.76,649.834a1.794,1.794,0,0,0-.082,1.194,21.976,21.976,0,0,0,6.078,11.673,21.381,21.381,0,0,0,11.643,6.046,1.875,1.875,0,0,0,1.194-.082.578.578,0,0,0,.288-.364l.722-3.228a.871.871,0,0,0-.272-.794c-.11-.109-2.556-.992-3.712-1.557a.972.972,0,0,0-1.264.29l-.449.773a1.134,1.134,0,0,1-.7.529c-1.132.288-4.634-2.936-5.4-3.7-.789-.789-4.122-4.375-3.833-5.508a1.142,1.142,0,0,1,.529-.7l.766-.444a.973.973,0,0,0,.3-1.267,19.706,19.706,0,0,1-1.127-3.1,1.01,1.01,0,0,0-1.081-.768l-3.245.725A.576.576,0,0,0,504.76,649.834Z" transform="translate(0 -0.001)" fill="none" stroke="#a0ce4e" stroke-miterlimit="10" stroke-width="1"/>
    <path id="Path_250" data-name="Path 250" d="M515.75,651.794a6.683,6.683,0,0,1,6.683,6.683" transform="translate(-1.364 -0.181)" fill="none" stroke="#a0ce4e" stroke-linecap="round" stroke-linejoin="round" stroke-width="1"/>
    <path id="Path_251" data-name="Path 251" d="M515.75,648.782a9.514,9.514,0,0,1,9.515,9.514" transform="translate(-1.617 0)" fill="none" stroke="#a0ce4e" stroke-linecap="round" stroke-linejoin="round" stroke-width="1"/>
  </g>
</svg>
