<svg xmlns="http://www.w3.org/2000/svg" width="16" height="13.719" viewBox="0 0 16 13.719">
  <path id="Path_171" data-name="Path 171" d="M1174,200.808v.062a.44.44,0,0,1-.016.094.406.406,0,0,0-.016.094,6.8,6.8,0,0,1-.515,2.453,8.669,8.669,0,0,1-1.156,2.031,10.14,10.14,0,0,1-1.594,1.609,16.916,16.916,0,0,1-1.671,1.219,16.371,16.371,0,0,1-1.563.859,11.934,11.934,0,0,1-1.094.484c-.187.062-.333.114-.437.156q-.157-.063-.437-.172t-1.078-.484a13.683,13.683,0,0,1-1.531-.844,15.615,15.615,0,0,1-1.641-1.235,11.385,11.385,0,0,1-1.578-1.61,7.929,7.929,0,0,1-1.141-2.015,7,7,0,0,1-.5-2.453.424.424,0,0,0-.016-.094.4.4,0,0,1-.016-.094v-.094a4.655,4.655,0,0,1,1.359-3.234,9.745,9.745,0,0,0,10.141-1.391,4.2,4.2,0,0,1,3.14,1.391,4.661,4.661,0,0,1,1.359,3.234Zm-1,.062v-.062a3.715,3.715,0,0,0-1.062-2.578,3.262,3.262,0,0,0-2.437-1.078,3.219,3.219,0,0,0-2.688,1.438,1.016,1.016,0,0,1-1.625,0,3.22,3.22,0,0,0-2.687-1.438,3.264,3.264,0,0,0-2.438,1.078,3.715,3.715,0,0,0-1.062,2.578v.062a.287.287,0,0,1,.032.125,6.1,6.1,0,0,0,.656,2.625,8.061,8.061,0,0,0,1.422,2.062,11.985,11.985,0,0,0,1.859,1.532,14.17,14.17,0,0,0,1.719,1.031q.656.313,1.25.563.593-.25,1.266-.563a14.088,14.088,0,0,0,1.75-1.031,12.315,12.315,0,0,0,1.891-1.532,8.122,8.122,0,0,0,1.453-2.062,5.933,5.933,0,0,0,.671-2.594A.352.352,0,0,1,1173,200.871Z" transform="translate(-1158 -196.152)" fill="#fff"/>
</svg>
