<svg xmlns="http://www.w3.org/2000/svg" width="27.025" height="27.025" viewBox="0 0 27.025 27.025">
  <g id="earth" transform="translate(-408 -504)">
    <circle id="Ellipse_26" data-name="Ellipse 26" cx="13.013" cy="13.013" r="13.013" transform="translate(408.5 504.5)" fill="none" stroke="#fff" stroke-miterlimit="10" stroke-width="1"/>
    <path id="Path_218" data-name="Path 218" d="M413.548,516.678c1.473-2.184,6.974-1.893,7.921,0,1.132,2.263-1.473,1.572-2.263,4.526-1.02,3.816.737,5.658,0,5.658-3.395,0-3.028-3.173-4.526-5.658C413.408,519.094,412.595,518.091,413.548,516.678Z" transform="translate(0.609 1.4)" fill="none" stroke="#fff" stroke-miterlimit="10" stroke-width="1"/>
    <path id="Path_219" data-name="Path 219" d="M432.56,516.634c-.411,0-7.921-2.59-7.921,0,0,1.132-1.543,1.8-1.132,3.395.518,2.015,3.389,2.181,3.395,3.395.007,1.545-2.574,3.088,0,3.395" transform="translate(1.965 1.445)" fill="none" stroke="#fff" stroke-miterlimit="10" stroke-width="1"/>
    <path id="Path_220" data-name="Path 220" d="M423.685,505.1c-.543,2.286.747,3.655,2.071,4.979,1.584,1.584.973,3.813,2.263,3.395,2.048-.656,3.372-1.38,3.395-1.131" transform="translate(1.981 0.079)" fill="none" stroke="#fff" stroke-miterlimit="10" stroke-width="1"/>
    <path id="Path_221" data-name="Path 221" d="M409.5,512.289a5.319,5.319,0,0,0,6.789,0c1.345-1.345,5.159-2.128,4.526-3.395-1.132-2.263-5.239-2.687-4.526-3.395" transform="translate(0.131 0.132)" fill="none" stroke="#fff" stroke-miterlimit="10" stroke-width="1"/>
  </g>
</svg>
