<svg xmlns="http://www.w3.org/2000/svg" width="120.724" height="123.066" viewBox="0 0 120.724 123.066">
  <path id="Path_3070" data-name="Path 3070" d="M944.526,223.674c-2.355-.312-4.725-.54-7.062-.952-8.383-1.476-16.091-4.494-22.459-10.33-8.134-7.455-11.38-16.923-10.444-27.692,1.507-17.336,8.024-32.788,18.6-46.552a47.575,47.575,0,0,1,9.22-9.068c-6.852-7.037-10.253-15.313-9.65-25.407.5.428.846.76,1.227,1.043,2.375,1.766,4.762,3.517,7.138,5.282a1.57,1.57,0,0,0,1.809.027,55.642,55.642,0,0,1,7.132-2.9c4.321-1.259,9.068-1.095,13.013,3.143,6.009-4.165,15.531-4.546,21.3-3.83a20.292,20.292,0,0,1-1.538,9.591c-1.195,3.026-2.688,5.935-4.08,8.957,6.546-.31,13.091-1.192,19.189-4.7l2.31,3.571c-5.536,3.47-11.688,4.556-17.619,5.238,2.323.918,4.939,1.739,7.353,2.96a10.354,10.354,0,0,1,5.712,7.192,9.052,9.052,0,0,1,.158,1.04c.039.382.05.768.077,1.222h-4.225c-.3-4.2-3.338-5.859-6.791-7.038a28.752,28.752,0,0,0-4.992-1.127c7.058,7.519,12.115,16.2,16.145,25.607,6.344-2.927,13.006-3.374,19.764-3.048a31.351,31.351,0,0,1,12.064,2.59,16.28,16.28,0,0,1,4.14,2.955,3.291,3.291,0,0,1,.8,3.779,4.1,4.1,0,0,0-.155,1.5c-.008,11.412-.05,22.825.027,34.237a6.1,6.1,0,0,1-3.2,5.691,23.377,23.377,0,0,1-10.22,3.129c-4.227.363-8.484.374-12.959.546a31.728,31.728,0,0,0,.019,3.322c.325,3.379-1.386,5.466-4.206,6.885a32.12,32.12,0,0,1-11.276,2.9c-.457.048-.909.153-1.363.232H972.2c-1.453-.211-2.914-.373-4.356-.642-2.762-.515-5.446-1.164-8.336-.349a49.907,49.907,0,0,1-7.011.991Zm45.92-43.31-3.638-1.166c.236.713,2.291,1.4,3.64,1.164a5.415,5.415,0,0,0,.991.759c2.78,1.256,5.04,2.9,4.943,6.423a44.158,44.158,0,0,0,16.241-.661,36.881,36.881,0,0,0,6.289-2.432c.579-.262.205-1.026.3-1.635a30.006,30.006,0,0,0,.06-4.23c-.807.307-1.462.532-2.1.8a19.13,19.13,0,0,1-1.9.888,41.811,41.811,0,0,1-18.357,1.488C994.737,181.5,992.6,180.842,990.446,180.364Zm-42.017,19.021c-6.5-2.337-9.77-6.08-9.18-10.454h4.095a6.464,6.464,0,0,0,4.932,5.887,2.472,2.472,0,0,0,.12-.46c.007-4.455.029-8.911-.023-13.365,0-.371-.442-.825-.792-1.09a47.247,47.247,0,0,1-5.237-3.894c-5.893-5.925-3.318-15.129,4.777-17.3,1.005-.27,1.376-.63,1.318-1.7-.1-1.933-.029-3.876-.029-5.85h4.339V158.4c5.9,2.15,9.176,6.01,8.8,10.332H957.41a6.691,6.691,0,0,0-4.686-5.82c0,4.784-.009,9.391.022,14a1.181,1.181,0,0,0,.5.79c1.949,1.342,3.922,2.648,6.033,4.062a26.95,26.95,0,0,1,10.845-2.835c3.873-.216,7.767-.047,11.745-.047v-1.394c0-3.476-.061-6.953.028-10.426.04-1.577.4-3.145.567-4.721a2.386,2.386,0,0,0-.178-1.112,84.358,84.358,0,0,0-10.119-18.3,44.68,44.68,0,0,0-12.413-11.961,3.765,3.765,0,0,0-1.851-.533q-9.379-.058-18.758,0a3.6,3.6,0,0,0-1.743.5,40.308,40.308,0,0,0-11.017,10.062,87.565,87.565,0,0,0-16.74,37.371,39.521,39.521,0,0,0-.423,14.911c1.82,9.928,7.57,16.875,16.481,21.281,9.105,4.5,18.838,5.313,28.8,4.54.8-.062,1.589-.184,2.131-.248a17.518,17.518,0,0,1-1.053-3.713c-.152-2.727-.04-5.468-.038-8.2,0-2.838,0-5.676,0-8.638l-2.859.952v7.24h-4.252Zm21.663-89.04c-2.306.192-4.286.282-6.244.54a19.387,19.387,0,0,0-7.621,2.5c-.765.462-1.111.9-.722,1.863a25.239,25.239,0,0,1,.86,3.332l-4.229.716c-.8-3.26-1.446-6.648-5-8-3.271-1.245-6.349-.142-9.348,1.073l.012.383,5.191.7v4.192a31.15,31.15,0,0,1-15.186-4.514c.484,1.327.822,2.4,1.26,3.428,1.4,3.292,3.035,6.452,5.875,8.762a3.607,3.607,0,0,0,2.093.75c7.5.053,15.01,0,22.513.067a4.287,4.287,0,0,0,3.309-1.366,24.407,24.407,0,0,0,5.362-8.716C968.9,114.292,969.407,112.458,970.092,110.345Zm33.78,58.928c1.731-.211,4.8-.485,7.837-.988a14.945,14.945,0,0,0,6.9-2.715c1.18-.917,1.246-1.683.029-2.5a16.437,16.437,0,0,0-3.94-1.985,41.424,41.424,0,0,0-16.1-1.552,29.722,29.722,0,0,0-9.353,1.965,12.989,12.989,0,0,0-2.749,1.52c-1.229.909-1.222,1.679.043,2.575a13.794,13.794,0,0,0,2.977,1.588C993.7,168.8,998.1,169.113,1003.872,169.273Zm-42.9,15.655c.233,1.046.583,2.855.583,2.855s.821,2.2,2.129,2.548c.339.089.673.2,1.012.287a45.109,45.109,0,0,0,19.841.531,16.627,16.627,0,0,0,7.249-2.781c1.226-.934,1.29-1.792-.007-2.579a20.174,20.174,0,0,0-4.74-2.187,43.055,43.055,0,0,0-17.4-1.069A25.564,25.564,0,0,0,960.973,184.928ZM958.9,210.851c0,1.164.076,2.255-.021,3.33a2.094,2.094,0,0,0,1.244,2.287c1.759.818,2.505,1.768,4.364,2.25a47.276,47.276,0,0,0,20.438.587,20.652,20.652,0,0,0,7.549-2.71c.53-.337.229-.871.3-1.385a34.994,34.994,0,0,0,.062-4.354C980.794,215.4,970.9,215.668,958.9,210.851Zm0-9.6c0,1.445.076,2.5-.021,3.546a2.1,2.1,0,0,0,1.234,2.292c1.721.809,2.427,1.756,4.247,2.231a47.417,47.417,0,0,0,20.55.621,20.279,20.279,0,0,0,7.645-2.777c.518-.337.165-.9.231-1.426a37.7,37.7,0,0,0,.059-4.5c-5.808,2.871-10.811,3.63-16.937,3.668C969.74,204.943,964.7,204.223,958.9,201.247Zm60.365-31.967c-11.843,4.826-22.633,4.5-34.531.419,0,1.045.073,2.026-.019,2.99a2.341,2.341,0,0,0,1.362,2.495,22.991,22.991,0,0,0,4.047,1.786,45.535,45.535,0,0,0,22.242.555,34.915,34.915,0,0,0,6.524-2.458c.582-.256.223-1.014.313-1.619A28.949,28.949,0,0,0,1019.267,169.28Zm-60.281,27.509a8.5,8.5,0,0,0,1.534,1.172c1.589.729,2.175,1.553,3.853,1.986a47.864,47.864,0,0,0,20.561.608,20.45,20.45,0,0,0,7.548-2.721c.529-.338.225-.873.291-1.388a35.9,35.9,0,0,0,.062-4.421c-11.029,4.526-20.039,4.481-31.153,1.318Zm60.281-8.9c-7.683,3.815-14.728,3.964-22.883,3.33v5.651a43.232,43.232,0,0,0,16.232-.6,40.267,40.267,0,0,0,6.284-2.429c.581-.262.216-1.019.307-1.626A30.946,30.946,0,0,0,1019.266,187.889Zm-22.892,18.38a47.854,47.854,0,0,0,14.907-.3,20.557,20.557,0,0,0,7.451-2.624c.611-.4.357-1.045.461-1.673a28.65,28.65,0,0,0,.068-4.422c-7.68,3.859-14.7,3.978-22.887,3.351ZM948.347,162.9a6.169,6.169,0,0,0-4.957,5.76c-.05,2.434,2.486,5.755,4.957,6.457Zm4.438,19.373v12.437c1.131-.565,2.51-.787,2.684-2.095a34.359,34.359,0,0,0-.034-4.66c0-.836.073-1.673.086-2.51.005-.313.052-.75-.124-.919C954.629,183.783,953.787,183.12,952.784,182.27Z" transform="translate(-903.401 -101.607)" fill="#424653" stroke="#fff" stroke-width="2"/>
</svg>
