<svg xmlns="http://www.w3.org/2000/svg" width="22" height="19.995" viewBox="0 0 22 19.995">
  <g id="Group_499" data-name="Group 499" transform="translate(-776 -379)">
    <path id="Path_135" data-name="Path 135" d="M778.444,383.892A2.446,2.446,0,1,0,776,381.444a2.447,2.447,0,0,0,2.444,2.448Zm0-3.756a1.308,1.308,0,1,1-1.308,1.308,1.309,1.309,0,0,1,1.308-1.308Zm0,0" fill="#a0ce4e"/>
    <path id="Path_136" data-name="Path 136" d="M778.444,506.063A2.444,2.444,0,1,0,776,503.619a2.447,2.447,0,0,0,2.444,2.444Zm0-3.752a1.308,1.308,0,1,1-1.308,1.308,1.309,1.309,0,0,1,1.308-1.308Zm0,0" transform="translate(0 -114.621)" fill="#a0ce4e"/>
    <path id="Path_137" data-name="Path 137" d="M778.444,628.238A2.444,2.444,0,1,0,776,625.795a2.447,2.447,0,0,0,2.444,2.444Zm0-3.756a1.308,1.308,0,1,1-1.308,1.308,1.309,1.309,0,0,1,1.308-1.308Zm0,0" transform="translate(0 -229.243)" fill="#a0ce4e"/>
    <path id="Path_138" data-name="Path 138" d="M899.27,410.441h13.981a.57.57,0,0,0,0-1.141H899.27a.57.57,0,1,0,0,1.141Zm0,0" transform="translate(-115.821 -28.427)" fill="#a0ce4e"/>
    <path id="Path_139" data-name="Path 139" d="M899.27,532.617h13.981a.57.57,0,0,0,0-1.141H899.27a.57.57,0,1,0,0,1.141Zm0,0" transform="translate(-115.821 -143.049)" fill="#a0ce4e"/>
    <path id="Path_140" data-name="Path 140" d="M899.27,654.715h13.981a.57.57,0,0,0,0-1.141H899.27a.57.57,0,1,0,0,1.141Zm0,0" transform="translate(-115.821 -257.597)" fill="#a0ce4e"/>
  </g>
</svg>
