<svg xmlns="http://www.w3.org/2000/svg" width="29.718" height="27.219" viewBox="0 0 29.718 27.219">
  <g id="Group_537" data-name="Group 537" transform="translate(0.5 0.5)">
    <path id="Path_184" data-name="Path 184" d="M0,0H6.222V3.733H0Z" transform="translate(3.733 10.119)" fill="none" stroke="#fff" stroke-linecap="round" stroke-width="1"/>
    <path id="Rectangle_51" data-name="Rectangle 51" d="M2,0H4.222a2,2,0,0,1,2,2V6.221a0,0,0,0,1,0,0H0a0,0,0,0,1,0,0V2A2,2,0,0,1,2,0Z" transform="translate(16.849 19.998)" fill="none" stroke="#fff" stroke-linecap="round" stroke-linejoin="round" stroke-width="1"/>
    <rect id="Rectangle_50" data-name="Rectangle 50" width="6.222" height="3.733" transform="translate(3.733 16.865)" stroke-width="1" stroke="#fff" stroke-linecap="round" stroke-linejoin="round" fill="none"/>
    <rect id="Rectangle_47" data-name="Rectangle 47" width="18.665" height="26.219" transform="translate(10.053 0)" stroke-width="1" stroke="#fff" stroke-linecap="round" stroke-linejoin="round" fill="none"/>
    <rect id="Rectangle_48" data-name="Rectangle 48" width="9.955" height="21.153" transform="translate(0 5.066)" stroke-width="1" stroke="#fff" stroke-linecap="round" stroke-linejoin="round" fill="none"/>
    <line id="Line_170" data-name="Line 170" x2="1.244" transform="translate(14.822 3.733)" fill="none" stroke="#fff" stroke-linecap="round" stroke-linejoin="round" stroke-width="1"/>
    <line id="Line_171" data-name="Line 171" x2="1.244" transform="translate(19.423 3.733)" fill="none" stroke="#fff" stroke-linecap="round" stroke-linejoin="round" stroke-width="1"/>
    <line id="Line_172" data-name="Line 172" x2="1.244" transform="translate(23.741 3.733)" fill="none" stroke="#fff" stroke-linecap="round" stroke-linejoin="round" stroke-width="1"/>
    <line id="Line_173" data-name="Line 173" x2="1.244" transform="translate(14.822 6.84)" fill="none" stroke="#fff" stroke-linecap="round" stroke-linejoin="round" stroke-width="1"/>
    <line id="Line_174" data-name="Line 174" x2="1.244" transform="translate(19.423 6.84)" fill="none" stroke="#fff" stroke-linecap="round" stroke-linejoin="round" stroke-width="1"/>
    <line id="Line_175" data-name="Line 175" x2="1.244" transform="translate(23.741 6.84)" fill="none" stroke="#fff" stroke-linecap="round" stroke-linejoin="round" stroke-width="1"/>
    <line id="Line_176" data-name="Line 176" x2="1.244" transform="translate(14.822 10.26)" fill="none" stroke="#fff" stroke-linecap="round" stroke-linejoin="round" stroke-width="1"/>
    <line id="Line_177" data-name="Line 177" x2="1.244" transform="translate(19.423 10.26)" fill="none" stroke="#fff" stroke-linecap="round" stroke-linejoin="round" stroke-width="1"/>
    <line id="Line_178" data-name="Line 178" x2="1.244" transform="translate(23.741 10.26)" fill="none" stroke="#fff" stroke-linecap="round" stroke-linejoin="round" stroke-width="1"/>
    <line id="Line_179" data-name="Line 179" x2="1.244" transform="translate(14.822 13.679)" fill="none" stroke="#fff" stroke-linecap="round" stroke-linejoin="round" stroke-width="1"/>
    <line id="Line_180" data-name="Line 180" x2="1.244" transform="translate(19.423 13.679)" fill="none" stroke="#fff" stroke-linecap="round" stroke-linejoin="round" stroke-width="1"/>
    <line id="Line_181" data-name="Line 181" x2="1.244" transform="translate(23.741 13.679)" fill="none" stroke="#fff" stroke-linecap="round" stroke-linejoin="round" stroke-width="1"/>
    <line id="Line_182" data-name="Line 182" x2="1.244" transform="translate(14.822 17.099)" fill="none" stroke="#fff" stroke-linecap="round" stroke-linejoin="round" stroke-width="1"/>
    <line id="Line_183" data-name="Line 183" x2="1.244" transform="translate(19.423 17.099)" fill="none" stroke="#fff" stroke-linecap="round" stroke-linejoin="round" stroke-width="1"/>
    <line id="Line_184" data-name="Line 184" x2="1.244" transform="translate(23.741 17.099)" fill="none" stroke="#fff" stroke-linecap="round" stroke-linejoin="round" stroke-width="1"/>
  </g>
</svg>
