<svg xmlns="http://www.w3.org/2000/svg" xmlns:xlink="http://www.w3.org/1999/xlink" width="18" height="14.304" viewBox="0 0 18 14.304">
  <defs>
    <clipPath id="clip-path">
      <rect id="Rectangle_762" data-name="Rectangle 762" width="10.5" height="14" transform="translate(685 933)" fill="#fff"/>
    </clipPath>
  </defs>
  <g id="Group_1419" data-name="Group 1419" transform="translate(-685 -933)">
    <g id="Mask_Group_30" data-name="Mask Group 30" clip-path="url(#clip-path)">
      <g id="star" transform="translate(688 932.548)">
        <path id="Path_3390" data-name="Path 3390" d="M7.854.688,9.762,5.2l4.885.42a.385.385,0,0,1,.219.674l-3.705,3.21,1.11,4.775a.385.385,0,0,1-.574.417L7.5,12.168,3.3,14.7a.385.385,0,0,1-.574-.417l1.11-4.775L.133,6.3a.385.385,0,0,1,.219-.674L5.237,5.2,7.145.688a.385.385,0,0,1,.709,0Z" fill="#a0ce4e"/>
      </g>
    </g>
    <g id="star-2" data-name="star" transform="translate(688 932.548)">
      <g id="Path_3389" data-name="Path 3389" fill="none">
        <path d="M7.854.688,9.762,5.2l4.885.42a.385.385,0,0,1,.219.674l-3.705,3.21,1.11,4.775a.385.385,0,0,1-.574.417L7.5,12.168,3.3,14.7a.385.385,0,0,1-.574-.417l1.11-4.775L.133,6.3a.385.385,0,0,1,.219-.674L5.237,5.2,7.145.688a.385.385,0,0,1,.709,0Z" stroke="none"/>
        <path d="M 7.49976110458374 2.417702674865723 L 6.158391952514648 5.591950416564941 L 5.923662185668945 6.14741039276123 L 5.32285213470459 6.199030876159668 L 1.887998580932617 6.494118690490723 L 4.493812561035156 8.751810073852539 L 4.949582099914551 9.146690368652344 L 4.81301212310791 9.734060287475586 L 4.032414436340332 13.09141254425049 L 6.983761787414551 11.31151008605957 L 7.500192165374756 11.00006103515625 L 8.016622543334961 11.31151008605957 L 10.96797943115234 13.09141826629639 L 10.1873722076416 9.73406982421875 L 10.05080223083496 9.14668083190918 L 10.506591796875 8.751800537109375 L 13.11160469055176 6.494884490966797 L 9.676772117614746 6.199800491333008 L 9.075912475585938 6.14818000793457 L 8.841201782226563 5.592660903930664 L 7.49976110458374 2.417702674865723 M 7.499812126159668 0.4519977569580078 C 7.643989562988281 0.4519977569580078 7.788166999816895 0.5305356979370117 7.854382038116455 0.6876106262207031 L 9.762361526489258 5.203470230102539 L 14.6470422744751 5.623110771179199 C 14.98583221435547 5.652370452880859 15.12365245819092 6.075080871582031 14.86648178100586 6.297600746154785 L 11.16139221191406 9.507600784301758 L 12.27169227600098 14.28294086456299 C 12.33156299591064 14.54101085662842 12.12738037109375 14.75627326965332 11.89676856994629 14.75627326965332 C 11.83082962036133 14.75627326965332 11.76277732849121 14.73869800567627 11.6980619430542 14.69949054718018 L 7.500192165374756 12.1678409576416 L 3.302331924438477 14.69949054718018 C 3.237641334533691 14.7384090423584 3.169647216796875 14.75587463378906 3.103850364685059 14.75587463378906 C 2.872835159301758 14.75587463378906 2.668771743774414 14.54063415527344 2.728702545166016 14.28294086456299 L 3.838992118835449 9.507600784301758 L 0.1331424713134766 6.296830177307129 C -0.124028205871582 6.074310302734375 0.01302242279052734 5.65160083770752 0.3525819778442383 5.622340202331543 L 5.237261772155762 5.202700614929199 L 7.145242214202881 0.6876106262207031 C 7.211457252502441 0.5305356979370117 7.355634689331055 0.4519977569580078 7.499812126159668 0.4519977569580078 Z" stroke="none" fill="#a0ce4e"/>
      </g>
    </g>
  </g>
</svg>
