<svg xmlns="http://www.w3.org/2000/svg" width="19.947" height="19.947" viewBox="0 0 19.947 19.947">
  <g id="Group_941" data-name="Group 941" transform="translate(0 0)">
    <path id="Path_3080" data-name="Path 3080" d="M4.987,1.247V0H.623A.623.623,0,0,0,0,.623V4.987H1.247V2.126L7.037,7.916l.879-.879L2.126,1.247Z" fill="#282828"/>
    <path id="Path_3081" data-name="Path 3081" d="M316.093,0H311.73V1.247h2.861L308.8,7.037l.879.879,5.791-5.791V4.987h1.247V.623A.623.623,0,0,0,316.093,0Z" transform="translate(-296.77)" fill="#282828"/>
    <path id="Path_3082" data-name="Path 3082" d="M315.47,314.591l-5.791-5.791-.879.879,5.791,5.791H311.73v1.247h4.363a.623.623,0,0,0,.623-.623V311.73H315.47Z" transform="translate(-296.77 -296.77)" fill="#282828"/>
    <path id="Path_3083" data-name="Path 3083" d="M7.037,308.64l-5.791,5.8v-2.861H0v4.363a.623.623,0,0,0,.623.623H4.987v-1.247H2.126l5.791-5.791Z" transform="translate(0 -296.616)" fill="#282828"/>
  </g>
</svg>
