<svg xmlns="http://www.w3.org/2000/svg" width="8.044" height="7" viewBox="0 0 8.044 7"><defs><style>.a{fill:#9f9d9d;}</style></defs><g transform="translate(8.044 7) rotate(180)"><path class="a" d="M2.348.36,2.12.194,2.113.188,2.1.182,1.932.1l0,.012A1.28,1.28,0,0,0,1.436,0,1.486,1.486,0,0,0,0,1.533,1.487,1.487,0,0,0,1.436,3.065a1.35,1.35,0,0,0,.7-.2A4.762,4.762,0,0,1,.188,6.1.526.526,0,0,0,.1,6.8.46.46,0,0,0,.478,7a.459.459,0,0,0,.29-.105A5.711,5.711,0,0,0,3.086,2.83,2.868,2.868,0,0,0,2.446.464Z"/><path class="a" d="M2.446.464l-.1-.1L2.12.194,2.113.188,2.1.182,1.931.1l0,.012A1.284,1.284,0,0,0,1.434,0,1.485,1.485,0,0,0,0,1.533,1.486,1.486,0,0,0,1.436,3.065a1.35,1.35,0,0,0,.7-.2A4.756,4.756,0,0,1,.189,6.1.525.525,0,0,0,.105,6.8.46.46,0,0,0,.479,7a.459.459,0,0,0,.29-.105A5.713,5.713,0,0,0,3.087,2.83,2.861,2.861,0,0,0,2.446.464Z" transform="translate(4.94)"/></g></svg>