<svg xmlns="http://www.w3.org/2000/svg" width="23.19" height="20" viewBox="0 0 23.19 20">
  <g id="heart-black-shape-for-valentines" transform="translate(0 -12.114)">
    <g id="Group_1408" data-name="Group 1408" transform="translate(0 12.114)">
      <g id="Path_3387" data-name="Path 3387" transform="translate(0 -12.114)" fill="none">
        <path d="M19.8,12.929A6.547,6.547,0,0,0,11.6,14.486,6.552,6.552,0,0,0,0,18.667a6.46,6.46,0,0,0,.324,2.02C1.448,25.741,11.6,32.114,11.6,32.114S21.74,25.741,22.866,20.687a6.465,6.465,0,0,0,.325-2.02A6.557,6.557,0,0,0,19.8,12.929Z" stroke="none"/>
        <path d="M 6.549160003662109 13.61400032043457 C 5.689939498901367 13.61400032043457 4.869129180908203 13.82571029663086 4.113679885864258 14.2409496307373 C 2.501508712768555 15.13379096984863 1.5 16.8298511505127 1.5 18.66724014282227 C 1.5 19.19489097595215 1.583648681640625 19.71708106994629 1.748628616333008 20.21931076049805 L 1.771699905395508 20.28954124450684 L 1.787748336791992 20.3617000579834 C 2.167978286743164 22.07081985473633 4.131088256835938 24.47136116027832 7.315459251403809 27.1211109161377 C 9.005087852478027 28.52708053588867 10.65594387054443 29.68543815612793 11.59696674346924 30.31926727294922 C 12.53755950927734 29.68531799316406 14.18715000152588 28.527099609375 15.87551879882812 27.12141036987305 C 19.05826950073242 24.47155952453613 21.02081871032715 22.07076072692871 21.40164947509766 20.36127090454102 L 21.41767883300781 20.28932952880859 L 21.4406795501709 20.21931076049805 C 21.60644912719727 19.71467971801758 21.69049835205078 19.19248962402344 21.69049835205078 18.66724014282227 C 21.69049835205078 16.83109092712402 20.68864822387695 15.13488006591797 19.07958984375 14.2425594329834 C 18.32251930236816 13.82547950744629 17.50123977661133 13.61400032043457 16.63856887817383 13.61400032043457 C 15.13084888458252 13.61400032043457 13.71454906463623 14.28051948547363 12.75282955169678 15.44264984130859 L 11.59993934631348 16.8358097076416 L 10.44381904602051 15.4453296661377 C 9.476149559020996 14.28149032592773 8.056599617004395 13.61400032043457 6.549160003662109 13.61400032043457 M 6.549160003662109 12.11399841308594 C 8.579098701477051 12.11399841308594 10.39281940460205 13.03778076171875 11.59721946716309 14.48633003234863 C 12.79595947265625 13.03778076171875 14.61138916015625 12.11399841308594 16.63856887817383 12.11399841308594 C 17.78753852844238 12.11399841308594 18.86446952819824 12.41147994995117 19.80338859558105 12.92873954772949 C 21.82253837585449 14.04846954345703 23.19049835205078 16.19758987426758 23.19049835205078 18.66724014282227 C 23.19049835205078 19.37360954284668 23.07421875 20.0528507232666 22.86575889587402 20.68744087219238 C 21.73996925354004 25.74090957641602 11.59722900390625 32.11399841308594 11.59722900390625 32.11399841308594 C 11.59722900390625 32.11399841308594 1.447759628295898 25.74077987670898 0.3235492706298828 20.68744087219238 C 0.1150894165039062 20.0528507232666 0 19.37453079223633 0 18.66724014282227 C 0 16.19667053222656 1.367959976196289 14.04689025878906 3.386968612670898 12.92873954772949 C 4.327999114990234 12.41147994995117 5.402959823608398 12.11399841308594 6.549160003662109 12.11399841308594 Z" stroke="none" fill="#a0ce4e"/>
      </g>
    </g>
  </g>
</svg>
