<svg xmlns="http://www.w3.org/2000/svg" width="25.394" height="20" viewBox="0 0 25.394 20">
  <g id="book" transform="translate(0 0)">
    <path id="Path_3091" data-name="Path 3091" d="M241.987,17.412V0l-.693.056a27.577,27.577,0,0,0-8.075,1.888L232,2.429V19.772l.888-.354a28.689,28.689,0,0,1,8.353-1.948Zm0,0" transform="translate(-218.864)" fill="#424653"/>
    <path id="Path_3092" data-name="Path 3092" d="M275.045,47.3h-1.362V62.448a.442.442,0,0,1-.417.433l-1.163.091q-.5.04-1,.1c-.108.012-.216.029-.323.043-.225.029-.449.057-.673.091-.13.02-.26.043-.39.065-.2.033-.4.067-.6.1-.136.026-.272.055-.411.083-.19.038-.38.078-.569.121-.142.032-.283.066-.424.1-.184.043-.367.09-.549.139-.142.037-.284.077-.426.116-.182.051-.36.1-.54.158l-.421.13q-.269.087-.536.179l-.412.144-.186.07h10.4Zm0,0" transform="translate(-249.652 -44.613)" fill="#424653"/>
    <path id="Path_3093" data-name="Path 3093" d="M40.693.056,40,0V17.413l.806.066a28.494,28.494,0,0,1,8.344,1.959l.837.334V2.429l-1.218-.485A27.576,27.576,0,0,0,40.693.056Zm0,0" transform="translate(-37.73)" fill="#424653"/>
    <path id="Path_3094" data-name="Path 3094" d="M0,47.3V64.612H10.412c-.056-.021-.112-.043-.168-.063-.13-.047-.261-.092-.392-.138-.184-.064-.369-.126-.554-.185q-.2-.065-.4-.126-.276-.087-.554-.163c-.136-.038-.272-.076-.409-.113-.187-.049-.374-.1-.561-.142-.136-.033-.272-.067-.412-.1-.19-.043-.381-.083-.573-.122-.136-.028-.272-.057-.409-.083-.2-.037-.4-.071-.6-.1L4.99,63.21c-.219-.033-.44-.061-.66-.09-.111-.014-.222-.031-.333-.043q-.5-.058-1-.1l-1.222-.1a.442.442,0,0,1-.415-.433V47.3Zm0,0" transform="translate(0 -44.613)" fill="#424653"/>
  </g>
</svg>
