<svg xmlns="http://www.w3.org/2000/svg" width="41.354" height="26.965" viewBox="0 0 41.354 26.965">
  <g id="handshake" transform="translate(-0.001 -84.953)">
    <g id="Group_540" data-name="Group 540" transform="translate(0 84.952)">
      <g id="Group_539" data-name="Group 539" transform="translate(0 0)">
        <path id="Path_185" data-name="Path 185" d="M27.874,90.23,17.415,86.622a4.051,4.051,0,0,0-3.049.186l-.525.254a2.96,2.96,0,0,1-2.3.127l-.9-.322a.925.925,0,0,0-.127-.068L5.169,84.979A.517.517,0,0,0,4.78,85a.5.5,0,0,0-.254.288L.029,98.41a.507.507,0,0,0,.313.644L5.7,100.892a.4.4,0,0,0,.169.034.494.494,0,0,0,.22-.051.5.5,0,0,0,.254-.288l4.327-12.618.542.195a4.018,4.018,0,0,0,3.083-.178l.525-.254a2.976,2.976,0,0,1,2.27-.144l10.069,3.472a2.4,2.4,0,0,1-.838,1.55,2.313,2.313,0,0,1-2.1.042l-4.4-1.5a.523.523,0,0,0-.406.034.537.537,0,0,0-.254.322,6.182,6.182,0,0,1-2.693,3.514,5.792,5.792,0,0,1-4.734.085.506.506,0,1,0-.33.957,8.706,8.706,0,0,0,2.8.508,5.671,5.671,0,0,0,2.744-.669,6.906,6.906,0,0,0,3.015-3.633l3.9,1.338a3.257,3.257,0,0,0,3.015-.169,3.723,3.723,0,0,0,1.321-2.718A.5.5,0,0,0,27.874,90.23ZM5.559,99.765l-4.4-1.507L5.322,86.105,9.607,87.57l.1.051.017.008Z" transform="translate(0 -84.952)" fill="#fff"/>
      </g>
    </g>
    <g id="Group_542" data-name="Group 542" transform="translate(8.218 85.037)">
      <g id="Group_541" data-name="Group 541" transform="translate(0 0)">
        <path id="Path_186" data-name="Path 186" d="M130.127,98.657l-6.114-12.424a.5.5,0,0,0-.288-.254.517.517,0,0,0-.39.025l-5.09,2.49a.51.51,0,0,0-.237.677l5.928,12.11-1.99,1.821a23.818,23.818,0,0,1-5.649,3.853l-9.747,4.768a1.1,1.1,0,0,1-.864.051,1.15,1.15,0,0,1-.652-.576,1.094,1.094,0,0,1-.051-.864,1.15,1.15,0,0,1,.576-.652L111,107.015a.508.508,0,0,0-.44-.915l-5.327,2.608-2.685,1.313a1.132,1.132,0,1,1-1-2.032l7.825-3.828a.508.508,0,0,0-.44-.915l-5.793,2.837-2.032.991-.957.466a1.132,1.132,0,0,1-1-2.032l.965-.474,7-3.43a.508.508,0,1,0-.44-.915l-4.5,2.2-2.507,1.228a1.1,1.1,0,0,1-.864.051,1.15,1.15,0,0,1-.652-.576,1.1,1.1,0,0,1-.051-.864,1.15,1.15,0,0,1,.576-.652l3.718-1.821a.508.508,0,0,0-.44-.915l-3.718,1.821a2.153,2.153,0,0,0-1.092,1.236,2.139,2.139,0,0,0,1.008,2.583,2.145,2.145,0,0,0,1.507,3.675c.093,0,.186-.008.279-.017a2.179,2.179,0,0,0,.186,1.3,2.144,2.144,0,0,0,1.931,1.2,2.094,2.094,0,0,0,.94-.22l.923-.457a2.05,2.05,0,0,0,.212,1.16,2.153,2.153,0,0,0,1.236,1.092,2.226,2.226,0,0,0,.7.119,2.156,2.156,0,0,0,.94-.22l9.747-4.768a24.744,24.744,0,0,0,5.886-4.023l2.21-2.032,5.022-2.456A.51.51,0,0,0,130.127,98.657Zm-5.335,2.066L119.143,89.18l4.184-2.041,5.64,11.543Z" transform="translate(-97.04 -85.952)" fill="#fff"/>
      </g>
    </g>
  </g>
</svg>
