<svg xmlns="http://www.w3.org/2000/svg" width="8.044" height="7" viewBox="0 0 8.044 7">
  <g id="Group_1374" data-name="Group 1374" transform="translate(8.044 7) rotate(180)">
    <path id="Path_3370" data-name="Path 3370" d="M2.348,16.925l-.227-.165-.008-.006L2.1,16.747l-.166-.081,0,.012a1.28,1.28,0,0,0-.5-.113,1.536,1.536,0,0,0,0,3.065,1.35,1.35,0,0,0,.7-.2A4.762,4.762,0,0,1,.188,22.663.526.526,0,0,0,.1,23.37a.46.46,0,0,0,.373.2.459.459,0,0,0,.29-.105,5.711,5.711,0,0,0,2.318-4.065,2.868,2.868,0,0,0-.64-2.366Z" transform="translate(0 -16.565)" fill="#9f9d9d"/>
    <path id="Path_3371" data-name="Path 3371" d="M156.463,17.029l-.1-.1-.226-.165-.008-.006-.016-.006-.166-.081,0,.012a1.284,1.284,0,0,0-.5-.113,1.536,1.536,0,0,0,0,3.065,1.35,1.35,0,0,0,.7-.2,4.756,4.756,0,0,1-1.944,3.234.525.525,0,0,0-.084.706.453.453,0,0,0,.663.09,5.713,5.713,0,0,0,2.319-4.065A2.861,2.861,0,0,0,156.463,17.029Z" transform="translate(-149.077 -16.565)" fill="#9f9d9d"/>
  </g>
</svg>
