<svg xmlns="http://www.w3.org/2000/svg" width="11.533" height="13.352" viewBox="0 0 11.533 13.352">
  <g id="flat" transform="translate(0 0)">
    <path id="Path_3391" data-name="Path 3391" d="M74.668,102.5h.782v1.113h-.782Zm0,0" transform="translate(-72.721 -99.827)" fill="#282828"/>
    <path id="Path_3392" data-name="Path 3392" d="M149.332,102.5h.782v1.113h-.782Zm0,0" transform="translate(-145.438 -99.827)" fill="#282828"/>
    <path id="Path_3393" data-name="Path 3393" d="M74.668,187.832h.782v1.113h-.782Zm0,0" transform="translate(-72.721 -182.934)" fill="#282828"/>
    <path id="Path_3394" data-name="Path 3394" d="M149.332,187.832h.782v1.113h-.782Zm0,0" transform="translate(-145.438 -182.934)" fill="#282828"/>
    <path id="Path_3395" data-name="Path 3395" d="M74.668,273.168h.782v1.113h-.782Zm0,0" transform="translate(-72.721 -266.044)" fill="#282828"/>
    <path id="Path_3396" data-name="Path 3396" d="M149.332,273.168h.782v1.113h-.782Zm0,0" transform="translate(-145.438 -266.044)" fill="#282828"/>
    <path id="Path_3397" data-name="Path 3397" d="M74.668,358.5h.782v1.113h-.782Zm0,0" transform="translate(-72.721 -349.151)" fill="#282828"/>
    <path id="Path_3398" data-name="Path 3398" d="M149.332,358.5h.782v1.113h-.782Zm0,0" transform="translate(-145.438 -349.151)" fill="#282828"/>
    <path id="Path_3399" data-name="Path 3399" d="M292.664,187.832h.782v1.113h-.782Zm0,0" transform="translate(-285.032 -182.934)" fill="#282828"/>
    <path id="Path_3400" data-name="Path 3400" d="M292.664,273.168h.782v1.113h-.782Zm0,0" transform="translate(-285.032 -266.044)" fill="#282828"/>
    <path id="Path_3401" data-name="Path 3401" d="M10.216,11.876a1.708,1.708,0,0,0,0-3.325V2.664H6.628V1.113H5.993V0H.635V1.113H0V13.352l11.518,0v-.782h-1.3ZM1.417.782H5.21V1.9h.635V12.565H.782V1.9h.635Zm5.21,2.664h2.8V8.552a1.708,1.708,0,0,0,0,3.324v.689h-2.8Zm4.123,6.767a.926.926,0,1,1-.926-.926A.927.927,0,0,1,10.751,10.214Zm0,0" fill="#282828"/>
  </g>
</svg>
