<svg xmlns="http://www.w3.org/2000/svg" width="16.842" height="20" viewBox="0 0 16.842 20">
  <path id="Path_154" data-name="Path 154" d="M815.421,359c-4.631,0-8.421.526-8.421,4.211v10a3.73,3.73,0,0,0,3.684,3.684l-1.579,1.579V379h12.632v-.526l-1.579-1.579a3.73,3.73,0,0,0,3.684-3.684v-10c0-3.684-3.79-4.211-8.421-4.211Zm-4.737,15.789a1.579,1.579,0,1,1,1.579-1.579,1.619,1.619,0,0,1-1.579,1.579Zm3.684-6.316h-5.263v-5.263h5.263Zm5.789,6.316a1.579,1.579,0,1,1,1.579-1.579,1.619,1.619,0,0,1-1.579,1.579Zm1.579-6.316h-5.263v-5.263h5.263Zm0,0" transform="translate(-807 -359)" fill="#0074e4"/>
</svg>
