<svg xmlns="http://www.w3.org/2000/svg" width="122.003" height="122.008" viewBox="0 0 122.003 122.008">
  <g id="Group_854" data-name="Group 854" transform="translate(-242.164 -72.6)">
    <path id="Path_3063" data-name="Path 3063" d="M363.167,119.534c-2.043,2.138-4.072,4.29-6.135,6.408-1.744,1.79-3.527,3.543-5.294,5.31s-2.519,1.832-4.54.364c-.24-.174-.489-.335-.9-.618v1.084c0,6.287.012,12.575-.017,18.863a1.264,1.264,0,0,0,.883,1.386,9.32,9.32,0,0,1,2.9,15.272c-3.8,3.638-7.96,6.905-11.974,10.32-4.4,3.744-8.853,7.431-13.223,11.212a17.678,17.678,0,0,1-12.1,4.473c-10.583-.055-21.167-.008-31.75-.036a8.086,8.086,0,0,1-2.508-.433c-3.318-1.114-6.614-2.3-10-3.484-.58,1.866-1.588,3.28-3.532,3.745a7.1,7.1,0,0,1-1.618.183q-7.5.02-15,0c-3.265-.008-5.169-1.906-5.172-5.169q-.012-16.871,0-33.742c0-3.249,1.919-5.134,5.2-5.142,3.826-.011,7.653,0,11.575,0V131.049c-.53.379-.981.724-1.454,1.036a2.26,2.26,0,0,1-3.2-.174q-5.715-5.633-11.337-11.361c-1.281-1.314-1-2.733.641-3.958q6.564-4.91,13.154-9.788c3.07-2.283,6.127-4.584,9.213-6.844,1.643-1.2,3.48-.712,3.96,1.025a2.481,2.481,0,0,1-1.242,2.783q-6.392,4.75-12.781,9.5c-2.563,1.907-5.122,3.818-7.592,5.66L257.436,127c.094-.065.443-.286.773-.532q21.335-15.861,42.666-31.726c2-1.486,2.589-1.49,4.548-.033L348.09,126.43c.31.231.629.451.81.58l8.119-8.064c-.241-.186-.6-.471-.968-.745Q330.117,98.909,304.2,79.6a1.436,1.436,0,0,0-2.082.031c-5.739,4.319-11.514,8.59-17.278,12.877-1.75,1.3-3.061,1.339-4.012.117s-.523-2.583,1.246-3.9q9.394-6.993,18.793-13.98c.527-.392,1.069-.762,1.6-1.142h1.406l26.951,19.961c0-2.8,0-5.333,0-7.869,0-2.4.775-3.184,3.139-3.185q6.675-.006,13.349,0c2.439,0,3.2.77,3.2,3.246,0,7.1.019,14.208-.022,21.312a2.07,2.07,0,0,0,.986,1.911q5.066,3.681,10.044,7.481a12.114,12.114,0,0,1,1.648,1.906Zm-94.65,65.146c3.6,1.266,7.2,2.552,10.811,3.781a7.613,7.613,0,0,0,2.383.424c10.233.028,20.465-.025,30.7.042a13.954,13.954,0,0,0,9.633-3.534c4.87-4.218,9.824-8.34,14.742-12.5,3.219-2.725,6.461-5.423,9.645-8.188a4.734,4.734,0,0,0,1.183-5.94,4.663,4.663,0,0,0-5.338-2.4,6.7,6.7,0,0,0-2.423,1.33c-5.975,4.968-11.908,9.987-17.865,14.976-1.308,1.1-2.751,1.081-3.645.036-.921-1.076-.711-2.478.6-3.582,6.061-5.109,12.113-10.229,18.225-15.276a12.257,12.257,0,0,1,3.456-1.892c.764-.289,1.007-.557,1-1.36q-.048-10.955.006-21.91a2.2,2.2,0,0,0-1.04-2Q326,115.876,311.452,105.022q-4.125-3.069-8.278-6.147c-.908.672-1.754,1.295-2.6,1.921q-17.48,13-34.944,26.022a2.083,2.083,0,0,0-.857,1.342c-.054,6.913-.042,13.826-.021,20.738,0,.283.188.743.4.819a5.269,5.269,0,0,1,3.391,4.031c5.48,0,10.907.031,16.333-.011a18.114,18.114,0,0,1,10.573,3.205c4.3,2.912,8.636,5.763,12.949,8.651a24.493,24.493,0,0,1,2.851,2.043,7.3,7.3,0,0,1,2.307,7.849c-1.355,4.759-6.289,6.882-10.965,4.771-2.594-1.17-5.144-2.439-7.714-3.665-1.725-.823-3.459-1.626-5.168-2.478-1.471-.734-1.986-2.023-1.37-3.266s1.923-1.588,3.421-.932c.25.11.494.233.74.35,3.907,1.863,7.806,3.745,11.73,5.569a5.328,5.328,0,0,0,2.226.54A2.9,2.9,0,0,0,309.1,174.1a2.959,2.959,0,0,0-1.4-3.32q-7.728-5.189-15.484-10.336a12.243,12.243,0,0,0-6.979-2.011c-5.233.018-10.467,0-15.7.008-.335,0-.67.043-1.024.067ZM253.488,154.3h-5.53v34.535H263.72V154.313h-5.545c0,5.483,0,10.871,0,16.259,0,2.143-.786,3.276-2.294,3.314-1.547.039-2.392-1.137-2.393-3.332C253.488,165.168,253.488,159.781,253.488,154.3ZM345.8,87.291H335.516c0,3.152-.022,6.265.032,9.377.006.325.4.717.713.951,2.9,2.183,5.812,4.339,8.726,6.5.228.169.486.3.812.5Z" fill="#424653" stroke="#fff" stroke-width="2"/>
    <path id="Path_3065" data-name="Path 3065" d="M347.042,145.425a2.317,2.317,0,0,1,2.3-2.386,2.365,2.365,0,0,1,2.4,2.3,2.393,2.393,0,0,1-2.317,2.393A2.337,2.337,0,0,1,347.042,145.425Z" transform="translate(-73.469 -49.113)" fill="#424653" stroke="#fff" stroke-width="2"/>
    <path id="Path_3066" data-name="Path 3066" d="M434.159,229.951a9.282,9.282,0,0,1-.551,1.354q-7.66,13.61-15.352,27.2c-.87,1.538-2.212,2.046-3.443,1.355-1.32-.74-1.609-2.13-.706-3.732q7.7-13.658,15.425-27.3c.817-1.442,1.9-1.894,3.135-1.409A2.382,2.382,0,0,1,434.159,229.951Z" transform="translate(-120.694 -108.956)" fill="#424653" stroke="#fff" stroke-width="2"/>
    <path id="Path_3067" data-name="Path 3067" d="M401.891,219.328a8.115,8.115,0,1,1-8.16-8.1A8.178,8.178,0,0,1,401.891,219.328Zm-8.106,3.356a3.336,3.336,0,1,0-3.345-3.328A3.354,3.354,0,0,0,393.785,222.684Z" transform="translate(-100.876 -97.434)" fill="#424653" stroke="#fff" stroke-width="2"/>
    <path id="Path_3068" data-name="Path 3068" d="M472.289,297.02a8.116,8.116,0,1,1-8.016-8.231A8.2,8.2,0,0,1,472.289,297.02Zm-4.78-.153a3.336,3.336,0,0,0-6.671.059,3.336,3.336,0,1,0,6.671-.059Z" transform="translate(-150.714 -152.34)" fill="#424653" stroke="#fff" stroke-width="2"/>
    <path id="Path_3069" data-name="Path 3069" d="M283.635,434.093a2.347,2.347,0,1,1-2.346-2.347A2.362,2.362,0,0,1,283.635,434.093Z" transform="translate(-25.088 -253.527)" fill="#424653" stroke="#fff" stroke-width="2"/>
  </g>
</svg>
