<svg xmlns="http://www.w3.org/2000/svg" width="106.515" height="102.103" viewBox="0 0 106.515 102.103">
  <path id="star_2_" data-name="star (2)" d="M102.11,46.367A7.486,7.486,0,0,0,97.959,33.6L72.686,29.927A3.3,3.3,0,0,1,70.2,28.119L58.9,5.219a7.486,7.486,0,0,0-13.424,0l-11.3,22.9a3.3,3.3,0,0,1-2.489,1.808L6.414,33.6A7.484,7.484,0,0,0,2.265,46.367L20.551,64.191a3.309,3.309,0,0,1,.953,2.926l-4.316,25.17a7.484,7.484,0,0,0,10.86,7.89l22.6-11.884a3.309,3.309,0,0,1,3.077,0l22.6,11.884a7.484,7.484,0,0,0,10.86-7.89L82.871,67.119a3.307,3.307,0,0,1,.953-2.926ZM78.754,67.825,83.07,92.993a3.306,3.306,0,0,1-4.795,3.486l-22.6-11.886a7.487,7.487,0,0,0-6.968,0L26.1,96.479a3.307,3.307,0,0,1-4.8-3.486l4.316-25.168A7.485,7.485,0,0,0,23.471,61.2L5.183,43.374a3.307,3.307,0,0,1,1.831-5.639l25.27-3.672a7.475,7.475,0,0,0,5.637-4.094l11.3-22.9a3.307,3.307,0,0,1,5.929,0l11.3,22.9a7.471,7.471,0,0,0,5.635,4.094l25.272,3.672a3.307,3.307,0,0,1,1.831,5.639L80.9,61.2A7.482,7.482,0,0,0,78.754,67.825Z" transform="translate(1.07 -0.047)" fill="#282828" stroke="#fff" stroke-width="2"/>
</svg>
