<svg xmlns="http://www.w3.org/2000/svg" width="20.832" height="9.258" viewBox="0 0 20.832 9.258">
  <g id="long-arrow-pointing-to-left" transform="translate(0)">
    <path id="Path_1615" data-name="Path 1615" d="M.108,141.241a.376.376,0,0,1,.277-.108H15.431v-3.7a.364.364,0,0,1,.229-.35.376.376,0,0,1,.422.072l4.629,4.268a.4.4,0,0,1,.12.289.381.381,0,0,1-.12.277l-4.629,4.22a.387.387,0,0,1-.422.06.349.349,0,0,1-.229-.35v-3.7H.386A.371.371,0,0,1,0,141.834v-.315A.376.376,0,0,1,.108,141.241Z" transform="translate(0 -137.048)" fill="#cecece"/>
  </g>
</svg>
