<svg xmlns="http://www.w3.org/2000/svg" width="51.851" height="64.734"><defs><filter id="a" x="0" y="0" width="51.851" height="64.734" filterUnits="userSpaceOnUse"><feOffset dy="3"/><feGaussianBlur stdDeviation="3" result="b"/><feFlood flood-opacity=".161"/><feComposite operator="in" in2="b"/><feComposite in="SourceGraphic"/></filter></defs><g transform="translate(.006)" filter="url(#a)"><path d="M25.92 6A16.945 16.945 0 008.995 22.925c0 11.582 15.147 28.585 15.791 29.3a1.525 1.525 0 002.268 0c.645-.718 15.791-17.721 15.791-29.3A16.945 16.945 0 0025.92 6z" fill="#e33d30"/></g><g transform="translate(12 8.867)" fill="none" stroke="#fff"><circle cx="14" cy="14" r="14" stroke="none"/><circle cx="14" cy="14" r="13.5"/></g><g fill="#fff"><path d="M33.141 27.699v-11.2l-.446.036a17.744 17.744 0 00-5.2 1.215l-.78.312V29.22l.571-.228a18.459 18.459 0 015.374-1.253zm0 0"/><path d="M34.601 18.229h-.876v9.748a.284.284 0 01-.268.279l-.748.058q-.324.026-.646.063c-.07.008-.139.019-.208.028-.145.018-.289.037-.433.059-.084.013-.167.028-.251.042a16.363 16.363 0 00-.651.121c-.122.025-.245.05-.366.078l-.273.065a14.01 14.01 0 00-.627.164l-.347.1-.271.083q-.173.056-.345.115l-.265.093-.12.045h6.695zm-14.432-1.694l-.446-.036v11.2l.518.042a18.333 18.333 0 015.369 1.261l.539.215V18.062l-.784-.312a17.743 17.743 0 00-5.2-1.215zm0 0"/><path d="M18.263 18.229v11.138h6.7l-.109-.038-.252-.089a14.928 14.928 0 00-.357-.119l-.26-.081q-.178-.056-.357-.1l-.265-.08c-.12-.032-.24-.062-.361-.091-.088-.021-.175-.043-.265-.063-.122-.028-.245-.053-.368-.079l-.263-.053c-.127-.024-.255-.045-.383-.067l-.252-.042c-.141-.021-.283-.039-.424-.058-.072-.009-.143-.02-.214-.028q-.321-.037-.643-.063l-.786-.064a.284.284 0 01-.267-.279v-9.744zm0 0"/></g></svg>