<svg xmlns="http://www.w3.org/2000/svg" width="51.851" height="64.734"><defs><filter id="a" x="0" y="0" width="51.851" height="64.734" filterUnits="userSpaceOnUse"><feOffset dy="3"/><feGaussianBlur stdDeviation="3" result="b"/><feFlood flood-opacity=".161"/><feComposite operator="in" in2="b"/><feComposite in="SourceGraphic"/></filter></defs><g transform="translate(.006)" filter="url(#a)"><path d="M25.92 6A16.945 16.945 0 008.995 22.925c0 11.582 15.147 28.585 15.791 29.3a1.525 1.525 0 002.268 0c.645-.718 15.791-17.721 15.791-29.3A16.945 16.945 0 0025.92 6z" fill="#e33d30"/></g><path d="M25.896 15.866c-3.242 0-5.895.368-5.895 2.947v7a2.611 2.611 0 002.579 2.579l-1.105 1.105v.369h8.842v-.368l-1.105-1.105a2.611 2.611 0 002.579-2.579v-7c0-2.579-2.653-2.947-5.895-2.947zM22.58 26.919a1.105 1.105 0 111.105-1.105 1.133 1.133 0 01-1.105 1.105zm2.579-4.421h-3.684v-3.684h3.684zm4.053 4.421a1.105 1.105 0 111.105-1.105 1.133 1.133 0 01-1.105 1.105zm1.105-4.421h-3.684v-3.684h3.684zm0 0" fill="#fff"/><g transform="translate(12 8.867)" fill="none" stroke="#fff"><circle cx="14" cy="14" r="14" stroke="none"/><circle cx="14" cy="14" r="13.5"/></g></svg>